<?xml version="1.0" encoding="utf-8"?>
<!-- Generator: Adobe Illustrator 24.2.0, SVG Export Plug-In . SVG Version: 6.00 Build 0)  -->
<svg version="1.1" id="Layer_1" xmlns="http://www.w3.org/2000/svg" xmlns:xlink="http://www.w3.org/1999/xlink" x="0px" y="0px"
	 viewBox="0 0 583 229" style="enable-background:new 0 0 583 229;" xml:space="preserve">
<style type="text/css">
	.st0{fill:#F7991C;}
	.st1{fill:#FFFFFF;}
	.st2{fill-rule:evenodd;clip-rule:evenodd;fill:#FFFFFF;}
</style>
<g>
	<polygon class="st0" points="491.1,89.8 575.2,37.3 575.2,51.5 491.1,104 407.1,51.5 407.1,37.3 	"/>
	<path class="st0" d="M491.1,24.1c-18.9,0-35.6,9.6-45.4,24.3l0.1,0c0.7-0.6,1.3-1.2,2-1.8c23.6-19.5,57.6-15.3,76.2,9.5l12.4-7.7h0
		C526.7,33.8,510,24.1,491.1,24.1"/>
	<path class="st0" d="M491.1,48.2c-10.3,0-19.3,5.1-24.8,12.9c4.4-3.1,9.6-4.9,15.1-4.9c9,0,17.1,4.8,22.7,12.5l12-7.5h0
		C510.5,53.4,501.4,48.2,491.1,48.2"/>
	<path class="st0" d="M434.3,27C468.9-0.4,517.9,7,544,43.4l0.2,0.3l12.8-8l0,0C542.9,14.2,518.7,0,491.1,0
		c-27.2,0-51.6,14.1-65.8,35.6C427.9,32.9,431.2,29.4,434.3,27"/>
</g>
<path class="st1" d="M83.4,133.2V83.1h16.5v49.5c0,12,9.9,15.1,15.8,15.1c12.4,0,16.5-7.3,16.5-11.5V83.1h16.4v77.8H139l-6.3-8.7
	c-4.5,5.4-11.8,10.4-22.7,10.4C94.3,162.6,83.4,152,83.4,133.2z"/>
<path class="st1" d="M270.2,55.4v105.4h9.3l6-8.7c4.4,5.4,11.8,10.5,22.6,10.5c14.5,0,26.9-9,26.9-28.6v-24.2
	c0-19.6-12.3-28.6-27.5-28.6c-10.5,0-17.7,4.8-21.3,9.4V55.4H270.2z M303.5,147.6c-10.2,0-17.5-4.9-17.3-15.4l0,0v-21.3
	c0-8.5,6.6-14.7,17.4-14.7c7.6,0,15.3,5.5,15.3,14.8v21.8C319,142.1,311.3,147.6,303.5,147.6z"/>
<path class="st1" d="M208.7,55.4v35.3c-3.6-4.6-10.8-9.4-21.3-9.4c-15.2,0-27.4,9-27.4,28.6v24.2c0,19.6,12.4,28.6,26.9,28.6
	c10.8,0,18.2-5.1,22.6-10.5l6,8.7h9.3V55.4H208.7z M176,132.9v-21.8c0-9.3,7.7-14.8,15.3-14.8c10.8,0,17.4,6.2,17.4,14.7v21.3l0,0
	c0.3,10.5-7.1,15.4-17.3,15.4C183.7,147.7,176,142.1,176,132.9z"/>
<path class="st1" d="M346.2,55.4h16.5v105.4h-16.5V55.4z"/>
<g>
	<rect x="239.5" y="83.1" class="st1" width="16.4" height="77.8"/>
	<circle class="st1" cx="247.7" cy="64.3" r="9.4"/>
</g>
<g>
	<path class="st1" d="M407.9,147.7c-11.2,0-16.8-5.8-16.8-13.9v-6.4h48.8v-17.5c0-18-12.6-28.6-32-28.6c-20.2,0-33.2,11.2-33.2,28.9
		v23.9c0,17.9,13,28.6,33.2,28.6c15.1,0,26-6.1,30.5-16.5l-11.9-7.4C422.3,144.7,416.4,147.7,407.9,147.7z M391.2,109.8
		c0-8.1,5.5-13.6,16.1-13.6s16.1,5.5,16.1,13.6v4.9h-32.3V109.8z"/>
</g>
<path class="st1" d="M41,81.3c-16,0-26.3,6.4-30.3,16.1l12.9,8c5.4-8.6,10.5-9.2,17.5-9.2c10,0,14.7,4.8,14.7,12.4v6.1l-13.8,0
	c-10.1,0-35,3.4-35,25c0,15.2,11.5,22.9,25.6,22.9c11.1,0,19.3-5.1,23.8-10.5l6.3,8.7h9.6v-53.2C72.1,92.3,61.9,81.3,41,81.3z
	 M55.6,135.9c-0.1,1.2-0.2,2.7-1.8,4.8c-2.5,3.6-8.8,7-16.2,7c-7.8,0-13.5-3.1-13.5-9.7c0-9.3,15.1-11.3,24.4-11.7h7.1L55.6,135.9
	L55.6,135.9z"/>
<path class="st1" d="M337.9,109"/>
<g>
	<path class="st2" d="M384.3,220.2c-8,5.8-19.6,8.8-29.7,8.8c-14,0-26.7-5-36.2-13.4c-0.8-0.7-0.1-1.6,0.8-1.1
		c10.3,5.8,23.1,9.4,36.3,9.4c8.9,0,18.7-1.8,27.7-5.5C384.5,217.8,385.6,219.2,384.3,220.2z"/>
	<path class="st2" d="M387.7,216.5c-1-1.3-6.8-0.6-9.4-0.3c-0.8,0.1-0.9-0.6-0.2-1.1c4.6-3.1,12.1-2.2,13-1.2
		c0.9,1.1-0.2,8.4-4.5,11.9c-0.7,0.5-1.3,0.2-1-0.5C386.5,223,388.7,217.8,387.7,216.5z"/>
	<path class="st2" d="M378.5,193v-3c0-0.5,0.4-0.8,0.8-0.8h14c0.5,0,0.8,0.3,0.8,0.8v2.6c0,0.4-0.4,1-1.1,1.9l-7.3,10.1
		c2.7-0.1,5.6,0.3,8,1.7c0.6,0.3,0.7,0.8,0.8,1.2v3.3c0,0.4-0.5,1-1,0.7c-4.3-2.2-10.1-2.4-14.8,0c-0.5,0.3-1-0.2-1-0.7v-3.1
		c0-0.5,0-1.3,0.5-2.1l8.4-11.8h-7.3C378.8,193.8,378.5,193.4,378.5,193z"/>
	<path class="st2" d="M327.2,212H323c-0.4,0-0.7-0.3-0.8-0.7V190c0-0.4,0.4-0.8,0.8-0.8h4c0.4,0,0.8,0.3,0.8,0.7v2.8h0.1
		c1-2.7,3-3.9,5.6-3.9c2.7,0,4.4,1.2,5.5,3.9c1-2.7,3.4-3.9,5.9-3.9c1.8,0,3.8,0.7,5,2.3c1.4,1.8,1.1,4.4,1.1,6.7l0,13.4
		c0,0.4-0.4,0.8-0.8,0.8h-4.3c-0.4,0-0.8-0.4-0.8-0.8v-11.3c0-0.9,0.1-3.1-0.1-4c-0.3-1.4-1.3-1.8-2.5-1.8c-1,0-2.1,0.7-2.5,1.8
		c-0.4,1.1-0.4,2.9-0.4,4.1v11.3c0,0.4-0.4,0.8-0.8,0.8h-4.3c-0.4,0-0.8-0.4-0.8-0.8v-11.3c0-2.4,0.4-5.9-2.6-5.9
		c-3.1,0-3,3.4-3,5.9v11.3C328.1,211.7,327.7,212,327.2,212z"/>
	<path class="st2" d="M406.2,188.8c6.3,0,9.8,5.3,9.8,12c0,6.5-3.8,11.6-9.8,11.6c-6.2,0-9.6-5.3-9.6-11.9
		C396.6,193.9,400,188.8,406.2,188.8z M406.2,193.1c-3.1,0-3.4,4.2-3.4,6.8s0,8.2,3.3,8.2c3.3,0,3.5-4.5,3.5-7.2
		c0-1.8-0.1-3.9-0.6-5.7C408.6,193.7,407.6,193.1,406.2,193.1z"/>
	<path class="st2" d="M424.2,212H420c-0.4,0-0.8-0.4-0.8-0.8l0-21.3c0-0.4,0.4-0.7,0.8-0.7h4c0.4,0,0.7,0.3,0.8,0.6v3.2h0.1
		c1.2-2.9,2.9-4.3,5.8-4.3c1.9,0,3.8,0.7,5,2.5c1.1,1.7,1.1,4.6,1.1,6.6v13.4c-0.1,0.4-0.4,0.7-0.8,0.7h-4.3c-0.4,0-0.7-0.3-0.8-0.7
		v-11.6c0-2.3,0.3-5.7-2.7-5.7c-1,0-2,0.7-2.5,1.7c-0.6,1.3-0.7,2.6-0.7,4v11.5C425,211.7,424.7,212,424.2,212z"/>
	<path class="st2" d="M367.3,201.8c0,1.6,0,3-0.8,4.4c-0.7,1.2-1.8,1.9-3,1.9c-1.6,0-2.6-1.2-2.6-3c0-3.5,3.3-4.2,6.4-4.2
		L367.3,201.8L367.3,201.8z M371.6,211.9c-0.3,0.2-0.7,0.3-1,0.1c-1.4-1.1-1.7-1.7-2.4-2.8c-2.3,2.3-4,3-7,3c-3.6,0-6.4-2.2-6.4-6.5
		c0-3.4,1.9-5.7,4.5-6.8c2.3-1,5.6-1.2,8-1.4v-0.5c0-1,0.1-2.2-0.5-3c-0.5-0.8-1.5-1.1-2.4-1.1c-1.6,0-3.1,0.8-3.4,2.5
		c-0.1,0.4-0.4,0.8-0.8,0.8l-4.1-0.4c-0.4-0.1-0.7-0.4-0.6-0.9c1-4.9,5.5-6.4,9.5-6.4c2.1,0,4.8,0.6,6.4,2.1
		c2.1,1.9,1.9,4.4,1.9,7.1v6.5c0,1.9,0.8,2.8,1.6,3.8c0.3,0.4,0.3,0.8,0,1.1C374,209.9,372.4,211.2,371.6,211.9L371.6,211.9z"/>
	<path class="st2" d="M311.2,201.8c0,1.6,0,3-0.8,4.4c-0.7,1.2-1.8,1.9-3,1.9c-1.6,0-2.6-1.2-2.6-3c0-3.5,3.2-4.2,6.4-4.2
		L311.2,201.8L311.2,201.8z M315.6,211.9c-0.3,0.2-0.7,0.3-1,0.1c-1.4-1.1-1.7-1.7-2.5-2.8c-2.3,2.3-4,3-7,3c-3.6,0-6.4-2.2-6.4-6.5
		c0-3.4,1.9-5.7,4.6-6.8c2.3-1,5.5-1.2,8-1.4v-0.5c0-1,0.1-2.2-0.5-3c-0.5-0.8-1.5-1.1-2.4-1.1c-1.6,0-3.1,0.8-3.4,2.5
		c-0.1,0.4-0.4,0.8-0.7,0.8l-4.1-0.4c-0.4-0.1-0.8-0.4-0.6-0.9c1-4.9,5.5-6.4,9.5-6.4c2.1,0,4.8,0.6,6.4,2.1
		c2.1,1.9,1.9,4.4,1.9,7.1v6.5c0,1.9,0.8,2.8,1.6,3.8c0.3,0.4,0.3,0.8,0,1.1C318,209.9,316.4,211.2,315.6,211.9L315.6,211.9z"/>
</g>
<g>
	<path class="st1" d="M10.5,189.3h3v14c0,3.9,1.3,5.7,4.5,5.7c1.9,0,3.4-0.9,4.6-2.2c1.5-1.8,1.8-3.7,1.8-7.1v-10.5h3v22h-1.9
		c-0.3-1.2-0.7-2.4-1-3.6c-1.6,2.7-4.2,4.2-7,4.2c-4.7,0-7-2.9-7-8V189.3z"/>
	<path class="st1" d="M32.9,189.4h1.8l1.1,3.5c1.7-2.8,4.3-4.2,7.2-4.2c4.7,0,7.1,3,7.1,8.1v14.5h-3v-14c0-3.9-1.4-5.7-4.7-5.7
		c-4.7,0-6.5,4-6.5,8.9v10.8h-3V189.4z"/>
	<path class="st1" d="M68.1,207.9c-1.3,2.3-3.9,3.9-7.2,3.9c-4.2,0-7.2-2.4-7.2-6.7c0-7.2,7.8-7.1,14.3-7.4v-1.4
		c0-3.3-1.6-5.1-5-5.1c-3.3,0-5.1,1.4-5.4,3.9c-1-0.1-1.9-0.1-2.9-0.2c0.5-4.2,3.6-6.3,8.3-6.3c5.1,0,7.9,2.6,7.9,8.4v14.2h-2
		L68.1,207.9z M68,200.3c-7.7,0.3-11.3,0.6-11.3,4.9c0,2.6,1.6,4.1,4.5,4.1c4.6,0,6.8-3.3,6.8-7V200.3z"/>
	<path class="st1" d="M101.2,205c-0.7,4.2-4,6.9-8.6,6.9c-6.1,0-9.6-4.7-9.6-11.4c0-6.9,3.7-11.8,9.5-11.8c6.1,0,9.1,4.8,9.1,10.8
		c0,0.5,0,1.1,0,1.6H86c0.1,4.4,2.3,8.1,6.5,8.1c3.3,0,5.1-1.7,5.7-4.3L101.2,205L101.2,205z M98.5,198.6c0-4.1-2-7.3-6.1-7.3
		c-3.9,0-6.2,3-6.4,7.3H98.5z"/>
	<path class="st1" d="M131.7,211.3V197c0-3.9-1.2-5.5-4.2-5.5s-5.8,2.8-5.8,6.7v13.1h-3V197c0-3.7-1.3-5.5-4.2-5.5
		c-3.1,0-5.8,2.9-5.8,7.7v12.1h-3v-21.9h1.8l1.2,3.5c1.5-2.6,3.8-4.1,6.5-4.1c3.3,0,5.3,1.6,6.1,4.3c1.5-2.7,3.9-4.3,6.9-4.3
		c4.4,0,6.6,2.8,6.6,7.7v14.9L131.7,211.3L131.7,211.3z"/>
	<path class="st1" d="M139.9,189.4h2l0.9,3.3c1.5-2.5,4-4,6.9-4c6.1,0,8.9,5.2,8.9,11.5c0,6.7-3.1,11.7-9.1,11.7
		c-2.6,0-5.1-1.2-6.6-3.6v11.4h-3L139.9,189.4L139.9,189.4z M149.2,209.2c4.1,0,6.3-3.5,6.3-8.9c0-5.5-2.4-8.7-6.2-8.7
		c-4.3,0-6.5,3.7-6.5,8.4C142.8,205.4,144.5,209.2,149.2,209.2z"/>
	<path class="st1" d="M162.8,189.4h1.7l1.2,3.8c1.3-2.7,3.8-4.1,6.3-4.1c0.6,0,1.2,0,1.9,0.2c-0.1,1-0.2,2-0.2,3
		c-0.6-0.1-1.2-0.2-1.8-0.2c-4.4,0-6.1,3.7-6.1,8.1v11.2h-3L162.8,189.4L162.8,189.4z"/>
	<path class="st1" d="M193.3,205c-0.6,4.2-4,6.9-8.6,6.9c-6.1,0-9.6-4.7-9.6-11.4c0-6.9,3.7-11.8,9.5-11.8c6.1,0,9.1,4.8,9.1,10.8
		c0,0.5,0,1.1,0,1.6h-15.5c0.1,4.4,2.3,8.1,6.5,8.1c3.3,0,5.1-1.7,5.7-4.3L193.3,205L193.3,205z M190.7,198.6c0-4.1-2-7.3-6.1-7.3
		c-3.9,0-6.2,3-6.4,7.3H190.7z"/>
	<path class="st1" d="M199.2,204.8c0.4,3.1,2.6,4.5,6,4.5c3.4,0,5.3-1.4,5.3-3.8c0-2.1-1.4-3.4-4.6-3.8c-4.8-0.7-9-1.6-9-6.4
		c0-4.2,3.7-6.5,8-6.5c5.1,0,7.9,2.9,8.2,6.5l-2.8,0c-0.4-2.3-2-4-5.3-4c-3.6,0-5.1,1.6-5.1,3.6c0,2.7,1.2,2.9,6.5,3.9
		c4.9,0.7,7.2,2.7,7.2,6.5c0,4.1-3.4,6.6-8.3,6.6c-4.9,0-8.7-2.4-8.9-7.1L199.2,204.8L199.2,204.8z"/>
	<path class="st1" d="M230.6,207.9c-1.3,2.3-3.9,3.9-7.2,3.9c-4.2,0-7.2-2.4-7.2-6.7c0-7.2,7.8-7.1,14.4-7.4v-1.4
		c0-3.3-1.6-5.1-5-5.1c-3.3,0-5.1,1.4-5.4,3.9c-1-0.1-1.9-0.1-2.9-0.2c0.5-4.2,3.6-6.3,8.3-6.3c5.1,0,7.9,2.6,7.9,8.4v14.2h-2
		L230.6,207.9z M230.4,200.3c-7.7,0.3-11.3,0.6-11.3,4.9c0,2.6,1.6,4.1,4.4,4.1c4.6,0,6.8-3.3,6.8-7V200.3z"/>
	<path class="st1" d="M262.8,211.3l-0.8-3.3c-1.5,2.4-4,3.9-6.9,3.9c-6.1,0-8.9-5.3-8.9-11.4c0-6.6,3.1-11.8,9.1-11.8
		c2.6,0,5.1,1.2,6.6,3.6v-11.9h3v30.9L262.8,211.3L262.8,211.3z M262,200.7c0-5.5-1.8-9.2-6.4-9.2c-4.1,0-6.3,3.6-6.3,8.9
		c0,5.5,2.4,8.8,6.2,8.8C259.8,209.2,262,205.4,262,200.7L262,200.7z"/>
	<path class="st1" d="M287.3,205c-0.6,4.2-4,6.9-8.6,6.9c-6.1,0-9.6-4.7-9.6-11.4c0-6.9,3.7-11.8,9.5-11.8c6.1,0,9.1,4.8,9.1,10.8
		c0,0.5,0,1.1,0,1.6h-15.5c0.1,4.4,2.3,8.1,6.5,8.1c3.3,0,5.1-1.7,5.7-4.3L287.3,205L287.3,205z M284.7,198.6c0-4.1-2-7.3-6.1-7.3
		c-3.9,0-6.2,3-6.4,7.3H284.7z"/>
</g>
</svg>
